<mxfile host="app.diagrams.net" agent="Mozilla/5.0 (Windows NT 10.0; Win64; x64) AppleWebKit/537.36 (KHTML, like Gecko) Chrome/133.0.0.0 Safari/537.36 Edg/133.0.0.0" version="26.0.14">
  <diagram id="C5RBs43oDa-KdzZeNtuy" name="Page-1">
    <mxGraphModel dx="1042" dy="627" grid="1" gridSize="10" guides="1" tooltips="1" connect="1" arrows="1" fold="1" page="1" pageScale="1" pageWidth="827" pageHeight="1169" math="0" shadow="0">
      <root>
        <mxCell id="WIyWlLk6GJQsqaUBKTNV-0" />
        <mxCell id="WIyWlLk6GJQsqaUBKTNV-1" parent="WIyWlLk6GJQsqaUBKTNV-0" />
        <mxCell id="KUI-be5DV8ihTn9q7R5k-2" value="" style="edgeStyle=orthogonalEdgeStyle;rounded=0;orthogonalLoop=1;jettySize=auto;html=1;" edge="1" parent="WIyWlLk6GJQsqaUBKTNV-1" source="KUI-be5DV8ihTn9q7R5k-0" target="KUI-be5DV8ihTn9q7R5k-1">
          <mxGeometry relative="1" as="geometry" />
        </mxCell>
        <mxCell id="KUI-be5DV8ihTn9q7R5k-0" value="所有景点，打上tag，包括门票价格、是否有其他优惠、适合几月份去、从当前位置过去需要多少时间" style="rounded=1;whiteSpace=wrap;html=1;" vertex="1" parent="WIyWlLk6GJQsqaUBKTNV-1">
          <mxGeometry x="510" y="230" width="210" height="120" as="geometry" />
        </mxCell>
        <mxCell id="KUI-be5DV8ihTn9q7R5k-1" value="字段：&lt;div&gt;&lt;ul&gt;&lt;li&gt;门票价格&lt;/li&gt;&lt;li&gt;经纬度&lt;/li&gt;&lt;li&gt;优惠情况&lt;/li&gt;&lt;li&gt;月份&lt;/li&gt;&lt;li&gt;景点类型（室外/室内/）&lt;/li&gt;&lt;li&gt;大众评分&lt;/li&gt;&lt;/ul&gt;&lt;/div&gt;" style="whiteSpace=wrap;html=1;rounded=1;" vertex="1" parent="WIyWlLk6GJQsqaUBKTNV-1">
          <mxGeometry x="521.25" y="380" width="187.5" height="140" as="geometry" />
        </mxCell>
        <mxCell id="KUI-be5DV8ihTn9q7R5k-3" value="前端" style="rounded=1;whiteSpace=wrap;html=1;" vertex="1" parent="WIyWlLk6GJQsqaUBKTNV-1">
          <mxGeometry x="20" y="230" width="130" height="120" as="geometry" />
        </mxCell>
        <mxCell id="KUI-be5DV8ihTn9q7R5k-5" style="edgeStyle=orthogonalEdgeStyle;rounded=0;orthogonalLoop=1;jettySize=auto;html=1;" edge="1" parent="WIyWlLk6GJQsqaUBKTNV-1" source="KUI-be5DV8ihTn9q7R5k-4" target="KUI-be5DV8ihTn9q7R5k-3">
          <mxGeometry relative="1" as="geometry" />
        </mxCell>
        <mxCell id="KUI-be5DV8ihTn9q7R5k-4" value="后端：&lt;div&gt;&lt;ul&gt;&lt;li&gt;提供list接口，根据筛选字段返回合适的景点&lt;/li&gt;&lt;li&gt;根据经纬度信息，查询当前位置到景点的距离和公交路线&lt;/li&gt;&lt;li&gt;根据景点评分分页展示 / 分批展示&lt;/li&gt;&lt;/ul&gt;&lt;/div&gt;" style="rounded=1;whiteSpace=wrap;html=1;" vertex="1" parent="WIyWlLk6GJQsqaUBKTNV-1">
          <mxGeometry x="220" y="230" width="260" height="120" as="geometry" />
        </mxCell>
      </root>
    </mxGraphModel>
  </diagram>
</mxfile>
